<svg width="256" height="256" viewBox="0 0 67.7 67.7" xml:space="preserve" xmlns="http://www.w3.org/2000/svg"><rect width="36.7" height="37.4" x="18.7" y="14.8" ry="2.3" transform="rotate(2.5)" fill-opacity=".7"/><path d="M16.4 13.3a3.3 3.3 0 0 0-3.3 3.3v31c0 1.9 1.5 3.3 3.3 3.3h31.1c1.8 0 3.3-1.4 3.3-3.2V24.5a5 5 66.5 0 0-1.5-3.4L42.7 15a6 6 21.5 0 0-4.2-1.6z"/><path d="M16.6 15.4q-1.3.1-1.4 1.3v30.8q.1 1.2 1.4 1.3h30.7q1.3-.1 1.4-1.3V24.6a3 3 66.5 0 0-1-2l-6.4-6a4 4 21.5 0 0-2.8-1.2Z" fill="#fff"/><path d="M19.2 27.6v11h3.3v-6.3l3.2 4 3.2-4v6.4h3.3V27.6h-3.3l-3.2 4-3.3-4zm18.7 0v5.7h-3.3l4.9 5.4 4.8-5.4h-3.2v-5.8zm.6-12.2v6c0 1.7 1.5 3.2 3.3 3.2h6.9q0-1.2-1-2v-.1H42q-1.3-.1-1.4-1.4V16q-1-.6-2.1-.6"/></svg>